<mxfile host="app.diagrams.net" modified="2020-10-20T15:08:17.096Z" agent="5.0 (Macintosh; Intel Mac OS X 10_14_6) AppleWebKit/605.1.15 (KHTML, like Gecko) Version/14.0 Safari/605.1.15" etag="i8OkvkcQfr6b1zPRd2K7" version="13.8.1" type="github">
  <diagram id="C5RBs43oDa-KdzZeNtuy" name="Page-1">
    <mxGraphModel dx="787" dy="549" grid="1" gridSize="10" guides="1" tooltips="1" connect="1" arrows="1" fold="1" page="1" pageScale="1" pageWidth="827" pageHeight="1169" math="0" shadow="0">
      <root>
        <mxCell id="WIyWlLk6GJQsqaUBKTNV-0" />
        <mxCell id="WIyWlLk6GJQsqaUBKTNV-1" parent="WIyWlLk6GJQsqaUBKTNV-0" />
        <mxCell id="3uDu_2YK2MFwAcys8kRX-31" value="Film_Actor" style="swimlane;fontStyle=0;align=center;verticalAlign=top;childLayout=stackLayout;horizontal=1;startSize=26;horizontalStack=0;resizeParent=1;resizeLast=0;collapsible=1;marginBottom=0;rounded=0;shadow=0;strokeWidth=1;" vertex="1" parent="WIyWlLk6GJQsqaUBKTNV-1">
          <mxGeometry x="150" y="100" width="160" height="100" as="geometry">
            <mxRectangle x="340" y="380" width="170" height="26" as="alternateBounds" />
          </mxGeometry>
        </mxCell>
        <mxCell id="3uDu_2YK2MFwAcys8kRX-32" value="" style="line;html=1;strokeWidth=1;align=left;verticalAlign=middle;spacingTop=-1;spacingLeft=3;spacingRight=3;rotatable=0;labelPosition=right;points=[];portConstraint=eastwest;" vertex="1" parent="3uDu_2YK2MFwAcys8kRX-31">
          <mxGeometry y="26" width="160" height="8" as="geometry" />
        </mxCell>
        <mxCell id="3uDu_2YK2MFwAcys8kRX-33" value="actor_id" style="text;html=1;strokeColor=none;fillColor=none;align=center;verticalAlign=middle;whiteSpace=wrap;rounded=0;fontStyle=1" vertex="1" parent="3uDu_2YK2MFwAcys8kRX-31">
          <mxGeometry y="34" width="160" height="20" as="geometry" />
        </mxCell>
        <mxCell id="3uDu_2YK2MFwAcys8kRX-34" value="film_id" style="text;html=1;strokeColor=none;fillColor=none;align=center;verticalAlign=middle;whiteSpace=wrap;rounded=0;fontStyle=1" vertex="1" parent="3uDu_2YK2MFwAcys8kRX-31">
          <mxGeometry y="54" width="160" height="20" as="geometry" />
        </mxCell>
        <mxCell id="3uDu_2YK2MFwAcys8kRX-35" value="last_update" style="text;html=1;strokeColor=none;fillColor=none;align=center;verticalAlign=middle;whiteSpace=wrap;rounded=0;" vertex="1" parent="3uDu_2YK2MFwAcys8kRX-31">
          <mxGeometry y="74" width="160" height="20" as="geometry" />
        </mxCell>
        <mxCell id="zkfFHV4jXpPFQw0GAbJ--17" value="Film" style="swimlane;fontStyle=0;align=center;verticalAlign=top;childLayout=stackLayout;horizontal=1;startSize=26;horizontalStack=0;resizeParent=1;resizeLast=0;collapsible=1;marginBottom=0;rounded=0;shadow=0;strokeWidth=1;" parent="WIyWlLk6GJQsqaUBKTNV-1" vertex="1">
          <mxGeometry x="230" y="240" width="160" height="360" as="geometry">
            <mxRectangle x="550" y="140" width="160" height="26" as="alternateBounds" />
          </mxGeometry>
        </mxCell>
        <mxCell id="3uDu_2YK2MFwAcys8kRX-17" value="film_id" style="text;html=1;strokeColor=none;fillColor=none;align=center;verticalAlign=middle;whiteSpace=wrap;rounded=0;fontStyle=1" vertex="1" parent="zkfFHV4jXpPFQw0GAbJ--17">
          <mxGeometry y="26" width="160" height="20" as="geometry" />
        </mxCell>
        <mxCell id="3uDu_2YK2MFwAcys8kRX-18" value="title" style="text;html=1;strokeColor=none;fillColor=none;align=center;verticalAlign=middle;whiteSpace=wrap;rounded=0;" vertex="1" parent="zkfFHV4jXpPFQw0GAbJ--17">
          <mxGeometry y="46" width="160" height="20" as="geometry" />
        </mxCell>
        <mxCell id="3uDu_2YK2MFwAcys8kRX-38" value="category_id" style="text;html=1;strokeColor=none;fillColor=none;align=center;verticalAlign=middle;whiteSpace=wrap;rounded=0;" vertex="1" parent="zkfFHV4jXpPFQw0GAbJ--17">
          <mxGeometry y="66" width="160" height="24" as="geometry" />
        </mxCell>
        <mxCell id="3uDu_2YK2MFwAcys8kRX-19" value="description" style="text;html=1;strokeColor=none;fillColor=none;align=center;verticalAlign=middle;whiteSpace=wrap;rounded=0;" vertex="1" parent="zkfFHV4jXpPFQw0GAbJ--17">
          <mxGeometry y="90" width="160" height="24" as="geometry" />
        </mxCell>
        <mxCell id="3uDu_2YK2MFwAcys8kRX-20" value="release_year" style="text;html=1;strokeColor=none;fillColor=none;align=center;verticalAlign=middle;whiteSpace=wrap;rounded=0;" vertex="1" parent="zkfFHV4jXpPFQw0GAbJ--17">
          <mxGeometry y="114" width="160" height="24" as="geometry" />
        </mxCell>
        <mxCell id="3uDu_2YK2MFwAcys8kRX-21" value="language_id" style="text;html=1;strokeColor=none;fillColor=none;align=center;verticalAlign=middle;whiteSpace=wrap;rounded=0;" vertex="1" parent="zkfFHV4jXpPFQw0GAbJ--17">
          <mxGeometry y="138" width="160" height="24" as="geometry" />
        </mxCell>
        <mxCell id="3uDu_2YK2MFwAcys8kRX-22" value="original_language_id" style="text;html=1;strokeColor=none;fillColor=none;align=center;verticalAlign=middle;whiteSpace=wrap;rounded=0;" vertex="1" parent="zkfFHV4jXpPFQw0GAbJ--17">
          <mxGeometry y="162" width="160" height="24" as="geometry" />
        </mxCell>
        <mxCell id="3uDu_2YK2MFwAcys8kRX-23" value="rental_duration" style="text;html=1;strokeColor=none;fillColor=none;align=center;verticalAlign=middle;whiteSpace=wrap;rounded=0;" vertex="1" parent="zkfFHV4jXpPFQw0GAbJ--17">
          <mxGeometry y="186" width="160" height="24" as="geometry" />
        </mxCell>
        <mxCell id="3uDu_2YK2MFwAcys8kRX-25" value="rental_rate" style="text;html=1;strokeColor=none;fillColor=none;align=center;verticalAlign=middle;whiteSpace=wrap;rounded=0;" vertex="1" parent="zkfFHV4jXpPFQw0GAbJ--17">
          <mxGeometry y="210" width="160" height="24" as="geometry" />
        </mxCell>
        <mxCell id="3uDu_2YK2MFwAcys8kRX-26" value="length" style="text;html=1;strokeColor=none;fillColor=none;align=center;verticalAlign=middle;whiteSpace=wrap;rounded=0;" vertex="1" parent="zkfFHV4jXpPFQw0GAbJ--17">
          <mxGeometry y="234" width="160" height="24" as="geometry" />
        </mxCell>
        <mxCell id="3uDu_2YK2MFwAcys8kRX-27" value="replacement_cost" style="text;html=1;strokeColor=none;fillColor=none;align=center;verticalAlign=middle;whiteSpace=wrap;rounded=0;" vertex="1" parent="zkfFHV4jXpPFQw0GAbJ--17">
          <mxGeometry y="258" width="160" height="24" as="geometry" />
        </mxCell>
        <mxCell id="3uDu_2YK2MFwAcys8kRX-28" value="rating" style="text;html=1;strokeColor=none;fillColor=none;align=center;verticalAlign=middle;whiteSpace=wrap;rounded=0;" vertex="1" parent="zkfFHV4jXpPFQw0GAbJ--17">
          <mxGeometry y="282" width="160" height="24" as="geometry" />
        </mxCell>
        <mxCell id="3uDu_2YK2MFwAcys8kRX-29" value="special_features" style="text;html=1;strokeColor=none;fillColor=none;align=center;verticalAlign=middle;whiteSpace=wrap;rounded=0;" vertex="1" parent="zkfFHV4jXpPFQw0GAbJ--17">
          <mxGeometry y="306" width="160" height="24" as="geometry" />
        </mxCell>
        <mxCell id="3uDu_2YK2MFwAcys8kRX-30" value="last_update" style="text;html=1;strokeColor=none;fillColor=none;align=center;verticalAlign=middle;whiteSpace=wrap;rounded=0;" vertex="1" parent="zkfFHV4jXpPFQw0GAbJ--17">
          <mxGeometry y="330" width="160" height="24" as="geometry" />
        </mxCell>
        <mxCell id="3uDu_2YK2MFwAcys8kRX-155" value="Rental" style="swimlane;fontStyle=0;align=center;verticalAlign=top;childLayout=stackLayout;horizontal=1;startSize=26;horizontalStack=0;resizeParent=1;resizeLast=0;collapsible=1;marginBottom=0;rounded=0;shadow=0;strokeWidth=1;" vertex="1" parent="WIyWlLk6GJQsqaUBKTNV-1">
          <mxGeometry x="340" y="10" width="140" height="210" as="geometry">
            <mxRectangle x="340" y="380" width="170" height="26" as="alternateBounds" />
          </mxGeometry>
        </mxCell>
        <mxCell id="3uDu_2YK2MFwAcys8kRX-156" value="" style="line;html=1;strokeWidth=1;align=left;verticalAlign=middle;spacingTop=-1;spacingLeft=3;spacingRight=3;rotatable=0;labelPosition=right;points=[];portConstraint=eastwest;" vertex="1" parent="3uDu_2YK2MFwAcys8kRX-155">
          <mxGeometry y="26" width="140" height="8" as="geometry" />
        </mxCell>
        <mxCell id="3uDu_2YK2MFwAcys8kRX-157" value="rental_id" style="text;html=1;strokeColor=none;fillColor=none;align=center;verticalAlign=middle;whiteSpace=wrap;rounded=0;fontStyle=1" vertex="1" parent="3uDu_2YK2MFwAcys8kRX-155">
          <mxGeometry y="34" width="140" height="20" as="geometry" />
        </mxCell>
        <mxCell id="3uDu_2YK2MFwAcys8kRX-158" value="rental_date" style="text;html=1;strokeColor=none;fillColor=none;align=center;verticalAlign=middle;whiteSpace=wrap;rounded=0;fontStyle=0" vertex="1" parent="3uDu_2YK2MFwAcys8kRX-155">
          <mxGeometry y="54" width="140" height="20" as="geometry" />
        </mxCell>
        <mxCell id="3uDu_2YK2MFwAcys8kRX-159" value="inventory_id" style="text;html=1;strokeColor=none;fillColor=none;align=center;verticalAlign=middle;whiteSpace=wrap;rounded=0;" vertex="1" parent="3uDu_2YK2MFwAcys8kRX-155">
          <mxGeometry y="74" width="140" height="26" as="geometry" />
        </mxCell>
        <mxCell id="3uDu_2YK2MFwAcys8kRX-160" value="customer_id" style="text;html=1;strokeColor=none;fillColor=none;align=center;verticalAlign=middle;whiteSpace=wrap;rounded=0;" vertex="1" parent="3uDu_2YK2MFwAcys8kRX-155">
          <mxGeometry y="100" width="140" height="26" as="geometry" />
        </mxCell>
        <mxCell id="3uDu_2YK2MFwAcys8kRX-161" value="return_date" style="text;html=1;strokeColor=none;fillColor=none;align=center;verticalAlign=middle;whiteSpace=wrap;rounded=0;" vertex="1" parent="3uDu_2YK2MFwAcys8kRX-155">
          <mxGeometry y="126" width="140" height="26" as="geometry" />
        </mxCell>
        <mxCell id="3uDu_2YK2MFwAcys8kRX-162" value="staff_id" style="text;html=1;strokeColor=none;fillColor=none;align=center;verticalAlign=middle;whiteSpace=wrap;rounded=0;" vertex="1" parent="3uDu_2YK2MFwAcys8kRX-155">
          <mxGeometry y="152" width="140" height="26" as="geometry" />
        </mxCell>
        <mxCell id="3uDu_2YK2MFwAcys8kRX-164" value="last_update" style="text;html=1;strokeColor=none;fillColor=none;align=center;verticalAlign=middle;whiteSpace=wrap;rounded=0;" vertex="1" parent="3uDu_2YK2MFwAcys8kRX-155">
          <mxGeometry y="178" width="140" height="20" as="geometry" />
        </mxCell>
        <mxCell id="3uDu_2YK2MFwAcys8kRX-176" value="Store" style="swimlane;fontStyle=0;align=center;verticalAlign=top;childLayout=stackLayout;horizontal=1;startSize=26;horizontalStack=0;resizeParent=1;resizeLast=0;collapsible=1;marginBottom=0;rounded=0;shadow=0;strokeWidth=1;" vertex="1" parent="WIyWlLk6GJQsqaUBKTNV-1">
          <mxGeometry x="670" y="10" width="140" height="130" as="geometry">
            <mxRectangle x="340" y="380" width="170" height="26" as="alternateBounds" />
          </mxGeometry>
        </mxCell>
        <mxCell id="3uDu_2YK2MFwAcys8kRX-177" value="" style="line;html=1;strokeWidth=1;align=left;verticalAlign=middle;spacingTop=-1;spacingLeft=3;spacingRight=3;rotatable=0;labelPosition=right;points=[];portConstraint=eastwest;" vertex="1" parent="3uDu_2YK2MFwAcys8kRX-176">
          <mxGeometry y="26" width="140" height="8" as="geometry" />
        </mxCell>
        <mxCell id="3uDu_2YK2MFwAcys8kRX-178" value="store_id" style="text;html=1;strokeColor=none;fillColor=none;align=center;verticalAlign=middle;whiteSpace=wrap;rounded=0;fontStyle=1" vertex="1" parent="3uDu_2YK2MFwAcys8kRX-176">
          <mxGeometry y="34" width="140" height="20" as="geometry" />
        </mxCell>
        <mxCell id="3uDu_2YK2MFwAcys8kRX-179" value="address_id" style="text;html=1;strokeColor=none;fillColor=none;align=center;verticalAlign=middle;whiteSpace=wrap;rounded=0;fontStyle=0" vertex="1" parent="3uDu_2YK2MFwAcys8kRX-176">
          <mxGeometry y="54" width="140" height="20" as="geometry" />
        </mxCell>
        <mxCell id="3uDu_2YK2MFwAcys8kRX-180" value="manager_staff_id" style="text;html=1;strokeColor=none;fillColor=none;align=center;verticalAlign=middle;whiteSpace=wrap;rounded=0;" vertex="1" parent="3uDu_2YK2MFwAcys8kRX-176">
          <mxGeometry y="74" width="140" height="26" as="geometry" />
        </mxCell>
        <mxCell id="3uDu_2YK2MFwAcys8kRX-181" value="last_update" style="text;html=1;strokeColor=none;fillColor=none;align=center;verticalAlign=middle;whiteSpace=wrap;rounded=0;" vertex="1" parent="3uDu_2YK2MFwAcys8kRX-176">
          <mxGeometry y="100" width="140" height="26" as="geometry" />
        </mxCell>
        <mxCell id="3uDu_2YK2MFwAcys8kRX-165" value="Address" style="swimlane;fontStyle=0;align=center;verticalAlign=top;childLayout=stackLayout;horizontal=1;startSize=26;horizontalStack=0;resizeParent=1;resizeLast=0;collapsible=1;marginBottom=0;rounded=0;shadow=0;strokeWidth=1;" vertex="1" parent="WIyWlLk6GJQsqaUBKTNV-1">
          <mxGeometry x="520" y="10" width="120" height="250" as="geometry">
            <mxRectangle x="340" y="380" width="170" height="26" as="alternateBounds" />
          </mxGeometry>
        </mxCell>
        <mxCell id="3uDu_2YK2MFwAcys8kRX-166" value="" style="line;html=1;strokeWidth=1;align=left;verticalAlign=middle;spacingTop=-1;spacingLeft=3;spacingRight=3;rotatable=0;labelPosition=right;points=[];portConstraint=eastwest;" vertex="1" parent="3uDu_2YK2MFwAcys8kRX-165">
          <mxGeometry y="26" width="120" height="8" as="geometry" />
        </mxCell>
        <mxCell id="3uDu_2YK2MFwAcys8kRX-167" value="address_id" style="text;html=1;strokeColor=none;fillColor=none;align=center;verticalAlign=middle;whiteSpace=wrap;rounded=0;fontStyle=1" vertex="1" parent="3uDu_2YK2MFwAcys8kRX-165">
          <mxGeometry y="34" width="120" height="20" as="geometry" />
        </mxCell>
        <mxCell id="3uDu_2YK2MFwAcys8kRX-168" value="address" style="text;html=1;strokeColor=none;fillColor=none;align=center;verticalAlign=middle;whiteSpace=wrap;rounded=0;fontStyle=0" vertex="1" parent="3uDu_2YK2MFwAcys8kRX-165">
          <mxGeometry y="54" width="120" height="20" as="geometry" />
        </mxCell>
        <mxCell id="3uDu_2YK2MFwAcys8kRX-169" value="address2" style="text;html=1;strokeColor=none;fillColor=none;align=center;verticalAlign=middle;whiteSpace=wrap;rounded=0;" vertex="1" parent="3uDu_2YK2MFwAcys8kRX-165">
          <mxGeometry y="74" width="120" height="26" as="geometry" />
        </mxCell>
        <mxCell id="3uDu_2YK2MFwAcys8kRX-170" value="district" style="text;html=1;strokeColor=none;fillColor=none;align=center;verticalAlign=middle;whiteSpace=wrap;rounded=0;" vertex="1" parent="3uDu_2YK2MFwAcys8kRX-165">
          <mxGeometry y="100" width="120" height="26" as="geometry" />
        </mxCell>
        <mxCell id="3uDu_2YK2MFwAcys8kRX-173" value="postal_code" style="text;html=1;strokeColor=none;fillColor=none;align=center;verticalAlign=middle;whiteSpace=wrap;rounded=0;" vertex="1" parent="3uDu_2YK2MFwAcys8kRX-165">
          <mxGeometry y="126" width="120" height="20" as="geometry" />
        </mxCell>
        <mxCell id="3uDu_2YK2MFwAcys8kRX-171" value="city" style="text;html=1;strokeColor=none;fillColor=none;align=center;verticalAlign=middle;whiteSpace=wrap;rounded=0;" vertex="1" parent="3uDu_2YK2MFwAcys8kRX-165">
          <mxGeometry y="146" width="120" height="26" as="geometry" />
        </mxCell>
        <mxCell id="3uDu_2YK2MFwAcys8kRX-172" value="country" style="text;html=1;strokeColor=none;fillColor=none;align=center;verticalAlign=middle;whiteSpace=wrap;rounded=0;" vertex="1" parent="3uDu_2YK2MFwAcys8kRX-165">
          <mxGeometry y="172" width="120" height="26" as="geometry" />
        </mxCell>
        <mxCell id="3uDu_2YK2MFwAcys8kRX-174" value="phone" style="text;html=1;strokeColor=none;fillColor=none;align=center;verticalAlign=middle;whiteSpace=wrap;rounded=0;" vertex="1" parent="3uDu_2YK2MFwAcys8kRX-165">
          <mxGeometry y="198" width="120" height="20" as="geometry" />
        </mxCell>
        <mxCell id="3uDu_2YK2MFwAcys8kRX-175" value="last_update" style="text;html=1;strokeColor=none;fillColor=none;align=center;verticalAlign=middle;whiteSpace=wrap;rounded=0;" vertex="1" parent="3uDu_2YK2MFwAcys8kRX-165">
          <mxGeometry y="218" width="120" height="20" as="geometry" />
        </mxCell>
        <mxCell id="3uDu_2YK2MFwAcys8kRX-39" value="Language" style="swimlane;fontStyle=0;align=center;verticalAlign=top;childLayout=stackLayout;horizontal=1;startSize=26;horizontalStack=0;resizeParent=1;resizeLast=0;collapsible=1;marginBottom=0;rounded=0;shadow=0;strokeWidth=1;" vertex="1" parent="WIyWlLk6GJQsqaUBKTNV-1">
          <mxGeometry x="90" y="620" width="160" height="100" as="geometry">
            <mxRectangle x="340" y="380" width="170" height="26" as="alternateBounds" />
          </mxGeometry>
        </mxCell>
        <mxCell id="3uDu_2YK2MFwAcys8kRX-40" value="" style="line;html=1;strokeWidth=1;align=left;verticalAlign=middle;spacingTop=-1;spacingLeft=3;spacingRight=3;rotatable=0;labelPosition=right;points=[];portConstraint=eastwest;" vertex="1" parent="3uDu_2YK2MFwAcys8kRX-39">
          <mxGeometry y="26" width="160" height="8" as="geometry" />
        </mxCell>
        <mxCell id="3uDu_2YK2MFwAcys8kRX-41" value="language_id" style="text;html=1;strokeColor=none;fillColor=none;align=center;verticalAlign=middle;whiteSpace=wrap;rounded=0;fontStyle=1" vertex="1" parent="3uDu_2YK2MFwAcys8kRX-39">
          <mxGeometry y="34" width="160" height="20" as="geometry" />
        </mxCell>
        <mxCell id="3uDu_2YK2MFwAcys8kRX-42" value="name" style="text;html=1;strokeColor=none;fillColor=none;align=center;verticalAlign=middle;whiteSpace=wrap;rounded=0;fontStyle=0" vertex="1" parent="3uDu_2YK2MFwAcys8kRX-39">
          <mxGeometry y="54" width="160" height="20" as="geometry" />
        </mxCell>
        <mxCell id="3uDu_2YK2MFwAcys8kRX-43" value="last_update" style="text;html=1;strokeColor=none;fillColor=none;align=center;verticalAlign=middle;whiteSpace=wrap;rounded=0;" vertex="1" parent="3uDu_2YK2MFwAcys8kRX-39">
          <mxGeometry y="74" width="160" height="20" as="geometry" />
        </mxCell>
        <mxCell id="zkfFHV4jXpPFQw0GAbJ--6" value="Country" style="swimlane;fontStyle=0;align=center;verticalAlign=top;childLayout=stackLayout;horizontal=1;startSize=26;horizontalStack=0;resizeParent=1;resizeLast=0;collapsible=1;marginBottom=0;rounded=0;shadow=0;strokeWidth=1;" parent="WIyWlLk6GJQsqaUBKTNV-1" vertex="1">
          <mxGeometry x="10" y="370" width="160" height="90" as="geometry">
            <mxRectangle x="130" y="380" width="160" height="26" as="alternateBounds" />
          </mxGeometry>
        </mxCell>
        <mxCell id="3uDu_2YK2MFwAcys8kRX-10" value="country_id" style="text;html=1;strokeColor=none;fillColor=none;align=center;verticalAlign=middle;whiteSpace=wrap;rounded=0;fontStyle=1" vertex="1" parent="zkfFHV4jXpPFQw0GAbJ--6">
          <mxGeometry y="26" width="160" height="20" as="geometry" />
        </mxCell>
        <mxCell id="3uDu_2YK2MFwAcys8kRX-13" value="country" style="text;html=1;strokeColor=none;fillColor=none;align=center;verticalAlign=middle;whiteSpace=wrap;rounded=0;" vertex="1" parent="zkfFHV4jXpPFQw0GAbJ--6">
          <mxGeometry y="46" width="160" height="20" as="geometry" />
        </mxCell>
        <mxCell id="3uDu_2YK2MFwAcys8kRX-12" value="last_update" style="text;html=1;strokeColor=none;fillColor=none;align=center;verticalAlign=middle;whiteSpace=wrap;rounded=0;" vertex="1" parent="zkfFHV4jXpPFQw0GAbJ--6">
          <mxGeometry y="66" width="160" height="20" as="geometry" />
        </mxCell>
        <mxCell id="zkfFHV4jXpPFQw0GAbJ--0" value="Actor" style="swimlane;fontStyle=2;align=center;verticalAlign=top;childLayout=stackLayout;horizontal=1;startSize=26;horizontalStack=0;resizeParent=1;resizeLast=0;collapsible=1;marginBottom=0;rounded=0;shadow=0;strokeWidth=1;" parent="WIyWlLk6GJQsqaUBKTNV-1" vertex="1">
          <mxGeometry x="10" y="230" width="160" height="110" as="geometry">
            <mxRectangle x="230" y="140" width="160" height="26" as="alternateBounds" />
          </mxGeometry>
        </mxCell>
        <mxCell id="3uDu_2YK2MFwAcys8kRX-4" value="actor_id" style="text;html=1;strokeColor=none;fillColor=none;align=center;verticalAlign=middle;whiteSpace=wrap;rounded=0;fontStyle=1" vertex="1" parent="zkfFHV4jXpPFQw0GAbJ--0">
          <mxGeometry y="26" width="160" height="20" as="geometry" />
        </mxCell>
        <mxCell id="3uDu_2YK2MFwAcys8kRX-6" value="first_name" style="text;html=1;strokeColor=none;fillColor=none;align=center;verticalAlign=middle;whiteSpace=wrap;rounded=0;" vertex="1" parent="zkfFHV4jXpPFQw0GAbJ--0">
          <mxGeometry y="46" width="160" height="20" as="geometry" />
        </mxCell>
        <mxCell id="3uDu_2YK2MFwAcys8kRX-7" value="last_name" style="text;html=1;strokeColor=none;fillColor=none;align=center;verticalAlign=middle;whiteSpace=wrap;rounded=0;" vertex="1" parent="zkfFHV4jXpPFQw0GAbJ--0">
          <mxGeometry y="66" width="160" height="20" as="geometry" />
        </mxCell>
        <mxCell id="3uDu_2YK2MFwAcys8kRX-8" value="last_update" style="text;html=1;strokeColor=none;fillColor=none;align=center;verticalAlign=middle;whiteSpace=wrap;rounded=0;" vertex="1" parent="zkfFHV4jXpPFQw0GAbJ--0">
          <mxGeometry y="86" width="160" height="20" as="geometry" />
        </mxCell>
        <mxCell id="zkfFHV4jXpPFQw0GAbJ--13" value="Category" style="swimlane;fontStyle=0;align=center;verticalAlign=top;childLayout=stackLayout;horizontal=1;startSize=26;horizontalStack=0;resizeParent=1;resizeLast=0;collapsible=1;marginBottom=0;rounded=0;shadow=0;strokeWidth=1;" parent="WIyWlLk6GJQsqaUBKTNV-1" vertex="1">
          <mxGeometry x="10" y="484.5" width="160" height="100" as="geometry">
            <mxRectangle x="340" y="380" width="170" height="26" as="alternateBounds" />
          </mxGeometry>
        </mxCell>
        <mxCell id="zkfFHV4jXpPFQw0GAbJ--15" value="" style="line;html=1;strokeWidth=1;align=left;verticalAlign=middle;spacingTop=-1;spacingLeft=3;spacingRight=3;rotatable=0;labelPosition=right;points=[];portConstraint=eastwest;" parent="zkfFHV4jXpPFQw0GAbJ--13" vertex="1">
          <mxGeometry y="26" width="160" height="8" as="geometry" />
        </mxCell>
        <mxCell id="3uDu_2YK2MFwAcys8kRX-14" value="category_id" style="text;html=1;strokeColor=none;fillColor=none;align=center;verticalAlign=middle;whiteSpace=wrap;rounded=0;fontStyle=1" vertex="1" parent="zkfFHV4jXpPFQw0GAbJ--13">
          <mxGeometry y="34" width="160" height="20" as="geometry" />
        </mxCell>
        <mxCell id="3uDu_2YK2MFwAcys8kRX-15" value="name" style="text;html=1;strokeColor=none;fillColor=none;align=center;verticalAlign=middle;whiteSpace=wrap;rounded=0;" vertex="1" parent="zkfFHV4jXpPFQw0GAbJ--13">
          <mxGeometry y="54" width="160" height="20" as="geometry" />
        </mxCell>
        <mxCell id="3uDu_2YK2MFwAcys8kRX-16" value="last_update" style="text;html=1;strokeColor=none;fillColor=none;align=center;verticalAlign=middle;whiteSpace=wrap;rounded=0;" vertex="1" parent="zkfFHV4jXpPFQw0GAbJ--13">
          <mxGeometry y="74" width="160" height="20" as="geometry" />
        </mxCell>
        <mxCell id="3uDu_2YK2MFwAcys8kRX-185" value="Inventory" style="swimlane;fontStyle=0;align=center;verticalAlign=top;childLayout=stackLayout;horizontal=1;startSize=26;horizontalStack=0;resizeParent=1;resizeLast=0;collapsible=1;marginBottom=0;rounded=0;shadow=0;strokeWidth=1;" vertex="1" parent="WIyWlLk6GJQsqaUBKTNV-1">
          <mxGeometry x="430" y="290" width="140" height="140" as="geometry">
            <mxRectangle x="340" y="380" width="170" height="26" as="alternateBounds" />
          </mxGeometry>
        </mxCell>
        <mxCell id="3uDu_2YK2MFwAcys8kRX-186" value="" style="line;html=1;strokeWidth=1;align=left;verticalAlign=middle;spacingTop=-1;spacingLeft=3;spacingRight=3;rotatable=0;labelPosition=right;points=[];portConstraint=eastwest;" vertex="1" parent="3uDu_2YK2MFwAcys8kRX-185">
          <mxGeometry y="26" width="140" height="8" as="geometry" />
        </mxCell>
        <mxCell id="3uDu_2YK2MFwAcys8kRX-187" value="inventory_id" style="text;html=1;strokeColor=none;fillColor=none;align=center;verticalAlign=middle;whiteSpace=wrap;rounded=0;fontStyle=1" vertex="1" parent="3uDu_2YK2MFwAcys8kRX-185">
          <mxGeometry y="34" width="140" height="20" as="geometry" />
        </mxCell>
        <mxCell id="3uDu_2YK2MFwAcys8kRX-188" value="film_id" style="text;html=1;strokeColor=none;fillColor=none;align=center;verticalAlign=middle;whiteSpace=wrap;rounded=0;fontStyle=0" vertex="1" parent="3uDu_2YK2MFwAcys8kRX-185">
          <mxGeometry y="54" width="140" height="20" as="geometry" />
        </mxCell>
        <mxCell id="3uDu_2YK2MFwAcys8kRX-189" value="store_id" style="text;html=1;strokeColor=none;fillColor=none;align=center;verticalAlign=middle;whiteSpace=wrap;rounded=0;" vertex="1" parent="3uDu_2YK2MFwAcys8kRX-185">
          <mxGeometry y="74" width="140" height="26" as="geometry" />
        </mxCell>
        <mxCell id="3uDu_2YK2MFwAcys8kRX-190" value="last_update" style="text;html=1;strokeColor=none;fillColor=none;align=center;verticalAlign=middle;whiteSpace=wrap;rounded=0;" vertex="1" parent="3uDu_2YK2MFwAcys8kRX-185">
          <mxGeometry y="100" width="140" height="26" as="geometry" />
        </mxCell>
        <mxCell id="3uDu_2YK2MFwAcys8kRX-192" value="staff" style="swimlane;fontStyle=0;align=center;verticalAlign=top;childLayout=stackLayout;horizontal=1;startSize=26;horizontalStack=0;resizeParent=1;resizeLast=0;collapsible=1;marginBottom=0;rounded=0;shadow=0;strokeWidth=1;" vertex="1" parent="WIyWlLk6GJQsqaUBKTNV-1">
          <mxGeometry x="680" y="230" width="120" height="278" as="geometry">
            <mxRectangle x="340" y="380" width="170" height="26" as="alternateBounds" />
          </mxGeometry>
        </mxCell>
        <mxCell id="3uDu_2YK2MFwAcys8kRX-193" value="" style="line;html=1;strokeWidth=1;align=left;verticalAlign=middle;spacingTop=-1;spacingLeft=3;spacingRight=3;rotatable=0;labelPosition=right;points=[];portConstraint=eastwest;" vertex="1" parent="3uDu_2YK2MFwAcys8kRX-192">
          <mxGeometry y="26" width="120" height="8" as="geometry" />
        </mxCell>
        <mxCell id="3uDu_2YK2MFwAcys8kRX-194" value="staff_id" style="text;html=1;strokeColor=none;fillColor=none;align=center;verticalAlign=middle;whiteSpace=wrap;rounded=0;fontStyle=1" vertex="1" parent="3uDu_2YK2MFwAcys8kRX-192">
          <mxGeometry y="34" width="120" height="20" as="geometry" />
        </mxCell>
        <mxCell id="3uDu_2YK2MFwAcys8kRX-195" value="first_name" style="text;html=1;strokeColor=none;fillColor=none;align=center;verticalAlign=middle;whiteSpace=wrap;rounded=0;fontStyle=0" vertex="1" parent="3uDu_2YK2MFwAcys8kRX-192">
          <mxGeometry y="54" width="120" height="20" as="geometry" />
        </mxCell>
        <mxCell id="3uDu_2YK2MFwAcys8kRX-196" value="last_name" style="text;html=1;strokeColor=none;fillColor=none;align=center;verticalAlign=middle;whiteSpace=wrap;rounded=0;" vertex="1" parent="3uDu_2YK2MFwAcys8kRX-192">
          <mxGeometry y="74" width="120" height="26" as="geometry" />
        </mxCell>
        <mxCell id="3uDu_2YK2MFwAcys8kRX-197" value="address_id" style="text;html=1;strokeColor=none;fillColor=none;align=center;verticalAlign=middle;whiteSpace=wrap;rounded=0;" vertex="1" parent="3uDu_2YK2MFwAcys8kRX-192">
          <mxGeometry y="100" width="120" height="26" as="geometry" />
        </mxCell>
        <mxCell id="3uDu_2YK2MFwAcys8kRX-198" value="picture" style="text;html=1;strokeColor=none;fillColor=none;align=center;verticalAlign=middle;whiteSpace=wrap;rounded=0;" vertex="1" parent="3uDu_2YK2MFwAcys8kRX-192">
          <mxGeometry y="126" width="120" height="20" as="geometry" />
        </mxCell>
        <mxCell id="3uDu_2YK2MFwAcys8kRX-199" value="email" style="text;html=1;strokeColor=none;fillColor=none;align=center;verticalAlign=middle;whiteSpace=wrap;rounded=0;" vertex="1" parent="3uDu_2YK2MFwAcys8kRX-192">
          <mxGeometry y="146" width="120" height="26" as="geometry" />
        </mxCell>
        <mxCell id="3uDu_2YK2MFwAcys8kRX-200" value="store_id" style="text;html=1;strokeColor=none;fillColor=none;align=center;verticalAlign=middle;whiteSpace=wrap;rounded=0;" vertex="1" parent="3uDu_2YK2MFwAcys8kRX-192">
          <mxGeometry y="172" width="120" height="26" as="geometry" />
        </mxCell>
        <mxCell id="3uDu_2YK2MFwAcys8kRX-201" value="active" style="text;html=1;strokeColor=none;fillColor=none;align=center;verticalAlign=middle;whiteSpace=wrap;rounded=0;" vertex="1" parent="3uDu_2YK2MFwAcys8kRX-192">
          <mxGeometry y="198" width="120" height="20" as="geometry" />
        </mxCell>
        <mxCell id="3uDu_2YK2MFwAcys8kRX-202" value="username" style="text;html=1;strokeColor=none;fillColor=none;align=center;verticalAlign=middle;whiteSpace=wrap;rounded=0;" vertex="1" parent="3uDu_2YK2MFwAcys8kRX-192">
          <mxGeometry y="218" width="120" height="20" as="geometry" />
        </mxCell>
        <mxCell id="3uDu_2YK2MFwAcys8kRX-203" value="password" style="text;html=1;strokeColor=none;fillColor=none;align=center;verticalAlign=middle;whiteSpace=wrap;rounded=0;" vertex="1" parent="3uDu_2YK2MFwAcys8kRX-192">
          <mxGeometry y="238" width="120" height="20" as="geometry" />
        </mxCell>
        <mxCell id="3uDu_2YK2MFwAcys8kRX-204" value="last_update" style="text;html=1;strokeColor=none;fillColor=none;align=center;verticalAlign=middle;whiteSpace=wrap;rounded=0;" vertex="1" parent="3uDu_2YK2MFwAcys8kRX-192">
          <mxGeometry y="258" width="120" height="20" as="geometry" />
        </mxCell>
        <mxCell id="3uDu_2YK2MFwAcys8kRX-214" value="Customer" style="swimlane;fontStyle=0;align=center;verticalAlign=top;childLayout=stackLayout;horizontal=1;startSize=26;horizontalStack=0;resizeParent=1;resizeLast=0;collapsible=1;marginBottom=0;rounded=0;shadow=0;strokeWidth=1;" vertex="1" parent="WIyWlLk6GJQsqaUBKTNV-1">
          <mxGeometry x="274" y="650" width="140" height="238" as="geometry">
            <mxRectangle x="340" y="380" width="170" height="26" as="alternateBounds" />
          </mxGeometry>
        </mxCell>
        <mxCell id="3uDu_2YK2MFwAcys8kRX-215" value="" style="line;html=1;strokeWidth=1;align=left;verticalAlign=middle;spacingTop=-1;spacingLeft=3;spacingRight=3;rotatable=0;labelPosition=right;points=[];portConstraint=eastwest;" vertex="1" parent="3uDu_2YK2MFwAcys8kRX-214">
          <mxGeometry y="26" width="140" height="8" as="geometry" />
        </mxCell>
        <mxCell id="3uDu_2YK2MFwAcys8kRX-216" value="customer_id" style="text;html=1;strokeColor=none;fillColor=none;align=center;verticalAlign=middle;whiteSpace=wrap;rounded=0;fontStyle=1" vertex="1" parent="3uDu_2YK2MFwAcys8kRX-214">
          <mxGeometry y="34" width="140" height="20" as="geometry" />
        </mxCell>
        <mxCell id="3uDu_2YK2MFwAcys8kRX-217" value="store_id" style="text;html=1;strokeColor=none;fillColor=none;align=center;verticalAlign=middle;whiteSpace=wrap;rounded=0;fontStyle=0" vertex="1" parent="3uDu_2YK2MFwAcys8kRX-214">
          <mxGeometry y="54" width="140" height="20" as="geometry" />
        </mxCell>
        <mxCell id="3uDu_2YK2MFwAcys8kRX-218" value="first_name" style="text;html=1;strokeColor=none;fillColor=none;align=center;verticalAlign=middle;whiteSpace=wrap;rounded=0;" vertex="1" parent="3uDu_2YK2MFwAcys8kRX-214">
          <mxGeometry y="74" width="140" height="26" as="geometry" />
        </mxCell>
        <mxCell id="3uDu_2YK2MFwAcys8kRX-219" value="last_name" style="text;html=1;strokeColor=none;fillColor=none;align=center;verticalAlign=middle;whiteSpace=wrap;rounded=0;" vertex="1" parent="3uDu_2YK2MFwAcys8kRX-214">
          <mxGeometry y="100" width="140" height="26" as="geometry" />
        </mxCell>
        <mxCell id="3uDu_2YK2MFwAcys8kRX-220" value="email" style="text;html=1;strokeColor=none;fillColor=none;align=center;verticalAlign=middle;whiteSpace=wrap;rounded=0;" vertex="1" parent="3uDu_2YK2MFwAcys8kRX-214">
          <mxGeometry y="126" width="140" height="26" as="geometry" />
        </mxCell>
        <mxCell id="3uDu_2YK2MFwAcys8kRX-221" value="address_id" style="text;html=1;strokeColor=none;fillColor=none;align=center;verticalAlign=middle;whiteSpace=wrap;rounded=0;" vertex="1" parent="3uDu_2YK2MFwAcys8kRX-214">
          <mxGeometry y="152" width="140" height="26" as="geometry" />
        </mxCell>
        <mxCell id="3uDu_2YK2MFwAcys8kRX-222" value="active" style="text;html=1;strokeColor=none;fillColor=none;align=center;verticalAlign=middle;whiteSpace=wrap;rounded=0;" vertex="1" parent="3uDu_2YK2MFwAcys8kRX-214">
          <mxGeometry y="178" width="140" height="20" as="geometry" />
        </mxCell>
        <mxCell id="3uDu_2YK2MFwAcys8kRX-223" value="create_date" style="text;html=1;strokeColor=none;fillColor=none;align=center;verticalAlign=middle;whiteSpace=wrap;rounded=0;" vertex="1" parent="3uDu_2YK2MFwAcys8kRX-214">
          <mxGeometry y="198" width="140" height="20" as="geometry" />
        </mxCell>
        <mxCell id="3uDu_2YK2MFwAcys8kRX-224" value="last_update" style="text;html=1;strokeColor=none;fillColor=none;align=center;verticalAlign=middle;whiteSpace=wrap;rounded=0;" vertex="1" parent="3uDu_2YK2MFwAcys8kRX-214">
          <mxGeometry y="218" width="140" height="20" as="geometry" />
        </mxCell>
        <mxCell id="3uDu_2YK2MFwAcys8kRX-205" value="Payment" style="swimlane;fontStyle=0;align=center;verticalAlign=top;childLayout=stackLayout;horizontal=1;startSize=26;horizontalStack=0;resizeParent=1;resizeLast=0;collapsible=1;marginBottom=0;rounded=0;shadow=0;strokeWidth=1;" vertex="1" parent="WIyWlLk6GJQsqaUBKTNV-1">
          <mxGeometry x="450" y="470" width="140" height="210" as="geometry">
            <mxRectangle x="340" y="380" width="170" height="26" as="alternateBounds" />
          </mxGeometry>
        </mxCell>
        <mxCell id="3uDu_2YK2MFwAcys8kRX-206" value="" style="line;html=1;strokeWidth=1;align=left;verticalAlign=middle;spacingTop=-1;spacingLeft=3;spacingRight=3;rotatable=0;labelPosition=right;points=[];portConstraint=eastwest;" vertex="1" parent="3uDu_2YK2MFwAcys8kRX-205">
          <mxGeometry y="26" width="140" height="8" as="geometry" />
        </mxCell>
        <mxCell id="3uDu_2YK2MFwAcys8kRX-207" value="payment_id" style="text;html=1;strokeColor=none;fillColor=none;align=center;verticalAlign=middle;whiteSpace=wrap;rounded=0;fontStyle=1" vertex="1" parent="3uDu_2YK2MFwAcys8kRX-205">
          <mxGeometry y="34" width="140" height="20" as="geometry" />
        </mxCell>
        <mxCell id="3uDu_2YK2MFwAcys8kRX-208" value="customer_id" style="text;html=1;strokeColor=none;fillColor=none;align=center;verticalAlign=middle;whiteSpace=wrap;rounded=0;fontStyle=0" vertex="1" parent="3uDu_2YK2MFwAcys8kRX-205">
          <mxGeometry y="54" width="140" height="20" as="geometry" />
        </mxCell>
        <mxCell id="3uDu_2YK2MFwAcys8kRX-209" value="staff_id" style="text;html=1;strokeColor=none;fillColor=none;align=center;verticalAlign=middle;whiteSpace=wrap;rounded=0;" vertex="1" parent="3uDu_2YK2MFwAcys8kRX-205">
          <mxGeometry y="74" width="140" height="26" as="geometry" />
        </mxCell>
        <mxCell id="3uDu_2YK2MFwAcys8kRX-210" value="rental_id" style="text;html=1;strokeColor=none;fillColor=none;align=center;verticalAlign=middle;whiteSpace=wrap;rounded=0;" vertex="1" parent="3uDu_2YK2MFwAcys8kRX-205">
          <mxGeometry y="100" width="140" height="26" as="geometry" />
        </mxCell>
        <mxCell id="3uDu_2YK2MFwAcys8kRX-211" value="amount" style="text;html=1;strokeColor=none;fillColor=none;align=center;verticalAlign=middle;whiteSpace=wrap;rounded=0;" vertex="1" parent="3uDu_2YK2MFwAcys8kRX-205">
          <mxGeometry y="126" width="140" height="26" as="geometry" />
        </mxCell>
        <mxCell id="3uDu_2YK2MFwAcys8kRX-212" value="payment_date" style="text;html=1;strokeColor=none;fillColor=none;align=center;verticalAlign=middle;whiteSpace=wrap;rounded=0;" vertex="1" parent="3uDu_2YK2MFwAcys8kRX-205">
          <mxGeometry y="152" width="140" height="26" as="geometry" />
        </mxCell>
        <mxCell id="3uDu_2YK2MFwAcys8kRX-213" value="last_update" style="text;html=1;strokeColor=none;fillColor=none;align=center;verticalAlign=middle;whiteSpace=wrap;rounded=0;" vertex="1" parent="3uDu_2YK2MFwAcys8kRX-205">
          <mxGeometry y="178" width="140" height="20" as="geometry" />
        </mxCell>
      </root>
    </mxGraphModel>
  </diagram>
</mxfile>
